<?xml version="1.0" encoding="utf-8"?>
<!-- Generator: Adobe Illustrator 16.0.0, SVG Export Plug-In . SVG Version: 6.00 Build 0)  -->
<!DOCTYPE svg PUBLIC "-//W3C//DTD SVG 1.1//EN" "http://www.w3.org/Graphics/SVG/1.1/DTD/svg11.dtd">
<svg version="1.1" id="Layer_1" xmlns="http://www.w3.org/2000/svg" xmlns:xlink="http://www.w3.org/1999/xlink" x="0px" y="0px"
	 width="172.904px" height="59.398px" viewBox="422.376 0 172.904 59.398" enable-background="new 422.376 0 172.904 59.398"
	 xml:space="preserve">
<g>
	<path fill="#303D67" d="M462.749,14.667c-1.658,0-3,1.343-3,3v26.5c0,1.657,1.342,3,3,3c1.656,0,3-1.343,3-3v-26.5
		C465.749,16.009,464.405,14.667,462.749,14.667z"/>
	<path fill="#ED1C24" d="M514.627,14.667c-1.656,0-3,1.343-3,3C508.293,32.5,486.127,56,460.627,56s-38.25-12-38.25-12
		c6.5,6.75,27.326,20.347,53.75,13.541c24.75-6.375,35.5-24,35.5-24v10.626c0,1.657,1.344,3,3,3s3-1.343,3-3v-26.5
		C517.627,16.009,516.284,14.667,514.627,14.667z"/>
	<path fill="#303D67" d="M476.127,47.167c1.656,0,3-1.343,3-3V25.541h13.5c1.656,0,3-1.343,3-3c0-1.657-1.344-3-3-3h-13.5V6h21
		c1.656,0,3-1.343,3-3c0-1.657-1.344-3-3-3h-24c-1.658,0-3,1.343-3,3v41.167C473.127,45.824,474.469,47.167,476.127,47.167z"/>
	<path fill="#303D67" d="M591.959,0c-1.656,0-3,1.343-3,3v15.52c-2.74-2.198-6.213-3.521-10-3.521c-8.836,0-16,7.163-16,16
		c0,8.837,7.164,16,16,16c3.787,0,7.26-1.322,10-3.521v0.688c0,1.657,1.344,3,3,3c1.658,0,3-1.343,3-3V3
		C594.959,1.342,593.618,0,591.959,0z M578.959,41.035c-5.543,0-10.035-4.493-10.035-10.036s4.492-10.036,10.035-10.036
		c5.295,0,9.623,4.103,10,9.301v1.47C588.583,36.932,584.254,41.035,578.959,41.035z"/>
	<circle fill="#ED1C24" cx="514.627" cy="6" r="5.833"/>
	<circle fill="#303D67" cx="462.749" cy="7.263" r="3.333"/>
	<path fill="#303D67" d="M540.293,14.999c-3.785,0-7.26,1.322-10,3.521v-0.853c0-1.657-1.344-3-3-3s-3,1.343-3,3v26.5
		c0,1.657,1.344,3,3,3s3-1.343,3-3V30.302c0.359-5.217,4.693-9.34,10-9.34c5.543,0,10.037,4.493,10.037,10.036h0.018
		c-0.031,0.176-0.055,0.356-0.055,0.542v12.626c0,1.657,1.344,3,3,3s3-1.343,3-3V31.541c0-0.186-0.021-0.366-0.055-0.542h0.055
		C556.293,22.162,549.129,14.999,540.293,14.999z"/>
</g>
</svg>
